<svg xmlns="http://www.w3.org/2000/svg" width="645.376" height="599.678" viewBox="0 0 645.376 599.678">
  <g id="Gruppe_338" data-name="Gruppe 338" transform="translate(-1387.148 -174.846)">
    <path id="Pfad_2476" data-name="Pfad 2476" d="M1614.926,738.206a.323.323,0,0,1,.073-.128c0-.214.012-.374.02-.461C1615.008,737.708,1614.979,737.9,1614.926,738.206Z" fill="#fff"/>
    <path id="Pfad_2477" data-name="Pfad 2477" d="M1614.926,738.206a.583.583,0,0,0-.036.2C1614.9,738.33,1614.914,738.272,1614.926,738.206Z" fill="#fff"/>
    <path id="Pfad_2478" data-name="Pfad 2478" d="M1615.019,737.617c.012-.1.008-.085,0,0Z" fill="#fff"/>
    <path id="Pfad_2479" data-name="Pfad 2479" d="M2031.17,483.63c-3.622-17.36-18.017-30.215-34.167-36.037-17.139-6.263-35.817-1.868-49.439,9.776a45.6,45.6,0,0,0-5.821,6.374c-11.757-35.6-33.293-71.083-69.437-84.928-2.966-1.208-5.275,3.187-3.076,5.165,13.842,12.634,25.378,26.368,34.5,42.738,9.008,16.041,14.505,32.85,19.338,51.085,2.527,9.669,4.724,19.887,5.491,28.566a138.939,138.939,0,0,1-.549,29.445s-.328,2.417-.328,2.307c-.221,1.208-.33,2.417-.549,3.516-.44,2.308-.989,4.614-1.538,6.921a142.26,142.26,0,0,1-4.174,14.831,157.471,157.471,0,0,1-11.317,25.929,260.666,260.666,0,0,1-14.724,24.391c-2.523,3.843-5.272,7.688-8.021,11.425-2.085,2.748-5.053,6.374-8.021,9.888-2.854,3.187-5.931,6.372-9.009,9.339-1.646,1.646-3.405,3.186-5.162,4.724-.877.769-1.757,1.539-2.638,2.2.109,0-1.537,1.209-1.757,1.429-7.471,5.711-15.6,10-24.062,14.061-7.032,3.3-6.483,12.086-2.308,17.14.219.99.109.99,0,.11.219,3.185-.11,6.481,0,9.778.333,7.691,2.857,15.38,4.723,22.852a131.131,131.131,0,0,1,2.858,16.589c.22,1.648.329,3.3.549,4.943-2.524,1.209-4.942,2.748-7.248,3.955a53.236,53.236,0,0,1-10,3.407c-3.625.879-7.251,1.539-10.874,2.087.219-.109-.113,0-1.1.11-1.318.11-2.525.219-3.736.33-2.415.219-4.942.329-7.357.438-.662,0-1.432.11-2.09.11-1.208-.769-2.527-1.317-3.735-1.976-2.968-1.868-5.821-3.845-8.789-5.713-2.2-1.319-5.492-3.516-8.788-4.615-.659-2.526-1.428-5.053-2.089-7.47,3.625,1.758,7.142,3.846,10.657,5.934,4.175,2.416,10.436,7.691,15.492,6.7a2.139,2.139,0,0,0,1.208-3.076c-1.538-2.2-3.846-2.748-6.151-3.845-3.077-1.539-6.045-3.187-9.012-4.835-4.4-2.526-9.008-5.053-13.842-6.372q-.823-2.473-1.65-4.944c-1.317-4.065-2.744-7.142-3.952-10.327-.219-.88-.662-1.868-.99-2.858a10.913,10.913,0,0,0,.438-4.284c-.329-3.405-1.866-5.273-4.724-7.031-4.613-2.857-9.338-.658-13.513,1.537-8.679,4.725-19.667,6.7-29.662,8.46-20.546,3.515-42.851,2.747-63.615-1.1-7.581-1.427-15.269-3.407-22.96-4.285-4.5-2.087-10.219-.439-13.516,4.175-3.183,4.4-2.634,11.427-3.4,16.48-.772,5.6-1.76,11.208-2.418,16.919.328-1.537.328-.878-.111,1.978-.22,1.209-.548,3.736-.548,3.736-.221,1.978-.221,3.955-.33,5.933-1.54.549-3.077,1.209-4.723,1.758a60.84,60.84,0,0,1-11.317,2.307c-8.68.878-17.358.329-26.041-.329a2.342,2.342,0,0,0-.549-1.868,16.49,16.49,0,0,0-3.846-2.855,71.409,71.409,0,0,1-5.82-4.175,45.515,45.515,0,0,1-4.176-3.846c-.109-.109-.109-.219-.219-.329.219-2.418.328-4.945.438-7.472,1.317,2.2,4.175,3.956,5.936,5.383,2.743,2.309,5.711,5.384,9.008,6.922,2.415,1.207,5.053-1.868,2.964-3.846-2.635-2.636-6.042-4.613-9.009-6.92-1.976-1.429-4.724-4.287-7.252-4.616a2.3,2.3,0,0,0-1.536.22c.109-2.637.219-5.273.438-8.019,0-.551.659-4.4.109-1.648.438-2.2.659-4.4.988-6.593.33-3.186.662-6.26,1.1-9.447,0-.219.328-2.968.328-2.968.331-1.646.66-3.185.989-4.724.658-3.3,1.87-6.811,1.536-10.217a7.67,7.67,0,0,0-5.163-7.03l-.109-.11c-3.187-1.868-6.81-2.748-10.329-3.956-3.073-.988-6.041-2.087-9.118-3.3-5.053-2.088-10.983-4.943-16.26-7.691-10.436-5.382-21.752-12.2-30.212-19.006-9.008-7.36-17.248-15.819-25.159-24.278a100.7,100.7,0,0,1-10.438-12.417c-1.647-2.308-2.854-5.273-4.4-7.909a12.362,12.362,0,0,0-7.142-7.143c-3.074-1.208-6.48-.109-9.557.439-.44.109-.88.109-1.428.219-.438,0-2.418.33-2.967.33-5.054.551-10.106.771-15.272.88-1.538,0-3.185-.109-4.726-.219-.438-2.417-.877-4.726-1.1-7.143s-.329-4.833-.329-7.141a2.56,2.56,0,0,1,.768.769c2.419,2.528,4.943,4.833,7.473,7.142,2.084,1.866,3.735,3.846,6.59,4.065a1.905,1.905,0,0,0,1.868-2.419c-.768-2.526-2.856-3.733-4.832-5.272-2.31-1.978-4.505-3.956-6.7-6.043-.109,0-.109-.11-.219-.11a.506.506,0,0,0,.328-.771,3.3,3.3,0,0,0-1.206-1.537,2.023,2.023,0,0,0-1.757-.219c-.771-.771-1.541-1.538-2.309-2.309.109-4.394.109-8.679,0-13.073-.22-5.162-.329-10.217-.22-15.38,0-2.417.11-4.945.329-7.471q.164-1.485.33-2.966c-.11,1.208.328-2.528.438-3.187.438-2.2,1.1-4.394,1.756-6.591.113-.33.224-.661.333-.99.11,0,.11-.11.11-.22a30.563,30.563,0,0,1,1.866-3.185c.219-.332.549-.551.768-.88.33-.219.55-.549.882-.768a2.3,2.3,0,0,1,.658-.439.405.405,0,0,0,.33-.109c.55-.11,1.1-.33,1.757-.439.219-.11,1.76-.331,1.869-.441,5.713-.549,11.646-.109,17.249.22,6.919.44,13.842,1.1,19.227-3.843a7.913,7.913,0,0,0,2.086-3.627,9.487,9.487,0,0,0,.658-1.1c1.87-3.075,2.091-6.482,2.858-10,.658-2.965,1.646-5.931,2.528-8.9a92.3,92.3,0,0,1,5.162-13.073q3.459-7.089,7.582-13.844c1.426-2.307,2.964-4.506,4.5-6.811.658-.88,1.316-1.87,1.975-2.857.222-.329,1.98-2.526,1.98-2.526a138.407,138.407,0,0,1,22.521-22.852,16.361,16.361,0,0,0,1.87-1.429q1.812-1.318,3.626-2.636c2.195-1.539,4.4-2.858,6.59-4.285,4.613-2.748,10.439-5.713,13.074-10.549a7.3,7.3,0,0,0-.331-7.909c.55-1.538.992-3.077,1.541-4.615,1.756-5.382,3.294-10.876,5.053-16.15.879-2.856,1.866-5.6,2.968-8.35.549-1.427.988-2.746,1.646-4.175a1.843,1.843,0,0,1,.219-.548q.5-1.154.989-2.307a99.932,99.932,0,0,1,8.019-14.173c.331-.329.55-.658.88-.987l1.979-1.978c.219-.111.549-.332.768-.441.109-.11.22-.11.329-.22a.4.4,0,0,0,.329-.109h.109a.409.409,0,0,0,.331.109c.109,0,.219.11.328.11.114.11.334.11.439.219a9.978,9.978,0,0,1,1.431.88,1.327,1.327,0,0,1,.33.22h.109a40.493,40.493,0,0,1,7.032,7.91,29.82,29.82,0,0,1,1.757,3.186c0-.11.877,1.87.987,2.089.992,2.966,1.211,6.371,2.858,9.009,2.2,3.517,5.491,6.262,9.886,6.262a10.776,10.776,0,0,0,9.45-6.262c4.285-2.308,8.021-5.824,12.416-8.459a75.177,75.177,0,0,1,10.215-5.275c3.3-1.428,7.363-2.2,10.22-4.284,1.207.99,2.415,2.087,3.626,3.185-.553.221-1.211.44-1.76.661-7.143,3.075-19.776,11.535-14.392,20.874,1.208,1.978,3.956,3.3,6.151,2.526a8.449,8.449,0,0,0,4.4-2.526,6.366,6.366,0,0,1,.881-.769l.989-.661,1.646-.988a8.4,8.4,0,0,0,1.212-.658,20.575,20.575,0,0,0,2.744-1.1c-1.647.77,1.321-.439,1.646-.549a61.13,61.13,0,0,1,9.78-2.636c1.646-.33,3.406-.551,5.162-.771l1.98-.329c-.109,0,2.194-.33,2.414-.33,6.154-.66,12.305-.77,18.569-.99,11.866-.329,23.729-1.317,35.6-1.317a110.051,110.051,0,0,1,33.285,4.943,62.955,62.955,0,0,1,12.528,5.274c4.724,2.526,11.424,8.9,17.249,6.372,2.524-1.1,4.942-2.307,5.381-5.384a11.313,11.313,0,0,0-3.187-10c-3.516-3.736-8.788-6.482-13.512-8.679,2.638-2.527,5.162-5.272,7.581-7.911,4.4,1.32,10,0,14.505.33-.335,0,2.414.439,2.194.439a30.247,30.247,0,0,1,4.5,1.1,61.86,61.86,0,0,1,7.912,2.856c4.284,1.65,9.666,4.285,14.284,6.374,5.492,2.527,12.743,5.932,18.785,3.626,4.064-1.429,5.382-5.165,3.626-9.01-2.31-5.384-9.008-8.789-13.842-11.534A154.064,154.064,0,0,0,1800,335.09a68.216,68.216,0,0,0-17.906-4.614c1.647-2.526,3.188-5.165,4.613-7.8,9.668-18.128,11.977-38.015,8.68-58.12-5.382-32.08-27.467-60.755-55.483-76.576-28.9-16.37-64.159-18.018-93.384-1.648-34.171,19.118-56.473,60.647-53.727,99.649a90.947,90.947,0,0,0,14.941,43.507c1.87,2.858,3.956,5.6,6.046,8.24a12.1,12.1,0,0,1-2.09.88,126.356,126.356,0,0,0-12.306,5.934,76.391,76.391,0,0,0-8.13,5.6q-.328-.824-.658-1.647c-5.383-11.646-18.789-25.928-32.96-24.72-11.755,1.1-20.1,10.106-24.938,20.214-4.943,10.547-8.021,21.864-10.329,33.291-1.207,5.492-2.2,10.986-2.854,16.59-.109,1.207-.329,2.417-.439,3.515-2.856.99-5.715,2.2-8.13,3.3a67.377,67.377,0,0,0-14.394,9.008,147.912,147.912,0,0,0-26.037,25.709,158.811,158.811,0,0,0-19.228,30.321,168.387,168.387,0,0,0-6.924,17.36,99.865,99.865,0,0,0-3.4,12.085c-.332,0-.662-.109-.991-.109-8.13-1.209-15.821-1.868-24.061-.551-13.952,2.2-22.412,13.3-25.928,26.37-3.3,11.864-2.966,24.5-2.636,36.585.109,5.492.219,10.875.109,16.259,0,9.559-.329,20.215,3.845,29.006a8.564,8.564,0,0,0,4.176,4.175c3.845,3.734,9.229,5.383,14.5,6.26a93.63,93.63,0,0,0,19.229.88c3.293-.22,7.139-.22,10.874-.771,2.31,5.935,5.935,11.208,9.671,16.261a199.919,199.919,0,0,0,26.256,28.236,172.155,172.155,0,0,0,34.058,23.4c6.594,3.405,13.406,6.482,20.216,9.337,3.406,1.429,7.032,3.078,10.768,4.4a.826.826,0,0,0-.109.549c-1.537,6.154-2.419,12.636-3.406,19.008-1.1,6.811-1.207,13.623-1.756,20.435-.11.329-.439,3.075-.439,3.075-.22,1.539-.553,2.967-.881,4.4-.989,3.4-1.318,7.25-.111,10.436a10.831,10.831,0,0,0,.221,3.3,15.517,15.517,0,0,0,6.923,9.888c6.813,4.614,17.027,5.384,25.048,6.7a126.38,126.38,0,0,0,31.533,1.429,89.182,89.182,0,0,0,16.04-2.747c6.37-1.648,13.623-3.625,17.139-9.559a10.2,10.2,0,0,0,.879-8.569q.657-1.813,1.317-3.626a68.287,68.287,0,0,0,3.405-11.976c.772-5.163,1.87-10.218,2.749-15.38.22-1.539.548-3.077.769-4.726a118,118,0,0,0,15.82,4.616,173.02,173.02,0,0,0,34.387,4.065c20.765.549,43.288-1.868,62.846-9.559.329,1.538.659,2.965.988,4.394,3.076,11.537,4.5,23.291,8.02,34.718a10.8,10.8,0,0,0,6.594,7.031,25.955,25.955,0,0,0,4.171,3.3c7.8,4.833,18.9,4.833,27.8,4.833a124.161,124.161,0,0,0,29.114-3.625,92.745,92.745,0,0,0,14.065-4.945c5.162-2.2,12.414-5.163,14.829-10.547a12.318,12.318,0,0,0,1.211-6.152,43.384,43.384,0,0,0,1.866-10,54.085,54.085,0,0,0-.219-9.447A120.846,120.846,0,0,0,1860.1,713.8c-1.212-6.593-3.846-13.843-4.175-20-.11-3.516.11-7.691-.22-11.646,14.94-7.691,28.123-18.787,39.329-31.421a259.49,259.49,0,0,0,35.488-52.3c9.338-18.128,16.371-37.574,19.225-57.9a158.244,158.244,0,0,0,.22-41.419c.553-1.209.991-2.416,1.54-3.516.769-2.087,1.427-4.175,2.086-6.262.333-.988.662-1.978,1.1-3.078.11-.439.33-.878.439-1.317a10.375,10.375,0,0,0,.55-.988c.877-1.87,1.975-3.735,3.077-5.6.109,0,1.1-1.429,1.316-1.648.55-.659,1.1-1.317,1.76-1.978s1.428-1.319,2.086-1.978c-.549.549,1.317-.878,1.317-.988a36.466,36.466,0,0,1,4.5-2.528,16.722,16.722,0,0,1,1.65-.659,22.221,22.221,0,0,1,2.525-.768c.881-.22,1.758-.33,2.527-.549H1977a26.57,26.57,0,0,1,5.163-.111c.572,0,1.07.074,1.618.1-.874-.037,1.826.352,2.337.454a41.8,41.8,0,0,1,4.943,1.427c.333.109,1.1.438,1.54.549a9.119,9.119,0,0,1,1.428.77,37.012,37.012,0,0,1,4.5,2.636c.219.11.882.659,1.21.878.658.551,1.318,1.1,1.977,1.76.987.878,1.869,1.976,2.857,2.965-.22-.22.769,1.1.988,1.429a15.4,15.4,0,0,1,1.431,2.2c.439.768.769,1.538,1.208,2.307a.385.385,0,0,0,.109.219c0,.11.109.219.109.439a37.823,37.823,0,0,1,1.647,6.043v.329c.109.109.109.331.109.661a27.068,27.068,0,0,1,.219,2.965,26.012,26.012,0,0,1,.109,2.856c-.109.329-.109,1.429-.219,1.758a14.964,14.964,0,0,1-.528,2.16.42.42,0,0,0-.021.037l.019-.029c-.045.156-.089.312-.128.467a5.283,5.283,0,0,1-.33.771,10.345,10.345,0,0,1-1.317,1.978c0,.109-.109.109-.109.219a17.5,17.5,0,0,1-1.431,1.429c-.549.33-1.207.659-1.757.988a2.728,2.728,0,0,1-.768.441c-.109,0-.989.439-1.321.548a40.864,40.864,0,0,1-4.943,1.317,16.834,16.834,0,0,1-2.306.439,6.378,6.378,0,0,1-1.1.22l-4.284.331c-3.514.11-7.028.219-10.546.11a23.746,23.746,0,0,1-4.723-.88c-7.472-1.976-10.22,8.9-3.188,11.427,6.479,2.307,12.524,5.163,19.334,6.152,7.252.99,14.613,1.209,21.646-1.538,7.248-2.746,13.622-7.582,16.809-14.941C2033.149,502.635,2033.259,493.078,2031.17,483.63ZM1618.187,254.01a95.067,95.067,0,0,1,12.635-23.951c1.427-1.978,1.427-1.978,3.187-4.175,1.537-1.759,3.073-3.407,4.614-5.165a66.551,66.551,0,0,1,4.943-4.724,23.84,23.84,0,0,1,2.524-2.2c.219-.219,2.418-1.978,2.418-1.978a76.594,76.594,0,0,1,9.337-6.152c1.651-.988,3.3-1.868,5.058-2.748.658-.33,1.427-.549,2.086-.878a19.753,19.753,0,0,0,2.09-.878,86.407,86.407,0,0,1,10.434-2.968c1.317-.329,2.638-.548,3.956-.769.22,0,1.541-.11,1.869-.11,1.207-.219,2.306-.219,3.518-.329a67.783,67.783,0,0,1,10.544.219,21.426,21.426,0,0,1,2.64.22h.109a.4.4,0,0,0,.328.109,60.86,60.86,0,0,1,6.15,1.208,82.268,82.268,0,0,1,10.11,2.968c.878.33,1.647.549,2.524.878a9.517,9.517,0,0,0,1.1.551c1.755.768,3.515,1.539,5.162,2.417a96.165,96.165,0,0,1,9.228,5.382c1.541.99,3.076,2.089,4.5,3.077a5.273,5.273,0,0,0,1.1.878l2.305,1.979a100.8,100.8,0,0,1,7.911,7.47c1.317,1.319,2.527,2.636,3.735,4.065.549.659,1.1,1.319,1.756,2.087a6.066,6.066,0,0,0,.659.878c.113.11.22.329.333.439a99.835,99.835,0,0,1,11.094,19.008,6.389,6.389,0,0,1,.658,1.649,25.181,25.181,0,0,1,.993,2.636c.658,1.758,1.206,3.516,1.755,5.272a111.192,111.192,0,0,1,2.639,11.976v.11a1.947,1.947,0,0,0,.11.661c.109.878.109,1.868.219,2.855.22,2.2.33,4.5.33,6.7,0,2.415-.221,4.724-.439,7.03v.658c-.109.22-.109.551-.22.88-.221,1.537-.549,2.965-.879,4.395a61.221,61.221,0,0,1-1.76,6.372c-.329,1.1-.769,2.087-1.1,3.185,0,0-.769,1.758-.88,1.979a81.5,81.5,0,0,1-6.482,11.754c-2.09,3.185-3.955,5.713-5.383,7.472-2.309,2.965-4.837,5.713-7.361,8.459-4.724,5.165-9.891,9.559-14.061,15.16-3.959-.877-7.912-1.537-11.867-2.086-14.174-1.759-28.455-.549-42.63.219-9.008.55-18.017.55-26.915,1.429-2.2.329-4.4.549-6.7.878-4.176-8.24-11.317-14.722-17.028-21.973-1.979-2.528-4.724-6.7-6.813-10-1.208-1.868-2.195-3.845-3.3-5.823-.549-.988-.987-1.978-1.535-2.968a27.457,27.457,0,0,1-1.1-2.746C1611.265,289.166,1612.251,271.7,1618.187,254.01Zm-62.626,495.714a54.363,54.363,0,0,0,1.212-5.823l.658.659a60.515,60.515,0,0,0,5.711,4.835c.663.438,1.321.988,2.089,1.538C1561.935,750.6,1558.747,750.273,1555.561,749.724Zm229.29-1.209c-.517-.074-.991-.106-1.476-.147a14.01,14.01,0,0,0-1.487-.292c-.553-1.978-1.1-4.065-1.541-6.043,1.979,1.1,3.846,2.526,5.825,3.735,1.316.99,2.744,1.978,4.065,2.856C1788.477,748.625,1786.61,748.515,1784.851,748.515Z" fill="#fff"/>
    <path id="Pfad_2480" data-name="Pfad 2480" d="M1520.405,457.26c-6.813-.658-16.15,3.516-19.228,10.33a20.241,20.241,0,0,0-2.968,3.736,24.83,24.83,0,0,0-3.183,19.445c3.621,13.844,20.983,20.654,32.959,12.964,10.654-7.03,14.721-22.522,9.447-34.059C1534.356,463.086,1527.768,457.921,1520.405,457.26Zm2.086,37.135c-6.26,4.616-16.479,1.1-18.9-6.7-1.321-4.177-.22-9.12,2.195-13.3,4.728-1.868,8.239-6.262,13.517-6.262,3.846,0,7.357,3.955,8.568,7.14C1530.183,481.541,1527.877,490.33,1522.491,494.395Z" fill="#fff"/>
    <path id="Pfad_2481" data-name="Pfad 2481" d="M1669.492,277.192a31.445,31.445,0,0,0,5.491,1.538,180.543,180.543,0,0,1,.334,20.436c0,2.3,0,4.5.109,6.811a48.911,48.911,0,0,0-7.581-6.7c-3.846-2.638-7.911,1.647-7.142,5.492,1.426,7.582,9.337,13.843,16.259,17.58a14.779,14.779,0,0,0,.549,2.087v3.406a41.249,41.249,0,0,0,.22,6.37c.992,8.681,12.854,7.033,11.647-1.537.219,1.537,0-.99,0-1.319,0-.988-.109-2.087-.109-3.076v-1.758a30.706,30.706,0,0,0,11.427-.441c.109,2.748.328,5.384.328,7.582.22,7.581,11.976,7.691,11.866,0,0-3.3-.109-6.592-.439-9.887-.109-1.1-.219-2.2-.328-3.187,11.423-8.788,16.04-24.39,8.24-37.683a28.511,28.511,0,0,0-14.505-12.085c-.109-7.033-.22-13.954-.549-20.875a39.145,39.145,0,0,1,7.472,6.151c1.427,1.429,4.4.44,4.174-1.756-.768-7.033-5.715-12.415-11.755-16.15.987-5.823,1.865-13.074.109-18.679-2.419-7.25-13.951-4.063-11.536,3.187,1.207,3.625.549,7.251.549,10.878-.88-.22-1.647-.441-2.524-.661a35.409,35.409,0,0,0-9.009-.878c0-.77-.113-1.539-.113-2.2.113-3.735.661-6.483.991-9.888.658-5.714-8.46-8.131-10.878-2.966-1.646,3.734-1.756,7.909-1.87,11.974,0,1.538,0,3.3.114,5.165a26.009,26.009,0,0,0-11.977,9.118c-3.845,5.494-4.285,13.074-3.077,19.557C1657.187,270.049,1663.012,274.665,1669.492,277.192Zm37.243,7.689c7.473,6.483,6.924,15.822,1.651,22.525-.33-2.2-.662-4.285-.882-6.155-.77-5.6-1.208-11.206-1.428-16.809C1706.3,284.552,1706.517,284.771,1706.735,284.881Zm-8.239,27.577a10.807,10.807,0,0,1,.221,1.868,20.592,20.592,0,0,1-13.074-.99c-.219-4.285-.439-8.459-.439-12.745.11-7.03.11-13.841-.328-20.764,1.535.109,3.187.219,4.723.219,1.979.11,4.066.219,5.932.439.224,6.483.553,12.854,1.321,19.228C1697.4,304,1698.058,308.173,1698.5,312.458Zm-8.24-68.338a30.629,30.629,0,0,1,5.273,1.209V249.5c0,6.373-.107,12.746-.107,19.006-3.845-.33-7.909-.439-11.755-.659-.991-7.361-2.089-14.721-2.857-22.082-.11-.66-.11-1.319-.22-1.869A35.455,35.455,0,0,1,1690.256,244.12Zm-20.544,4.616a8.324,8.324,0,0,1,1.979-1.758c.439,6.372,1.207,12.744,1.976,19.116-.109,0-.219-.11-.328-.11a10.224,10.224,0,0,1-5.054-3.624C1665.757,258.186,1667.3,252.031,1669.712,248.736Z" fill="#fff"/>
    <path id="Pfad_2482" data-name="Pfad 2482" d="M1844.071,371.125a38.049,38.049,0,0,1,2.305,4.945,8.7,8.7,0,0,0,5.6,4.174,7.856,7.856,0,0,0,7.912-2.087,8.415,8.415,0,0,0,2.305-3.956,9.21,9.21,0,0,0-.879-6.811,10.079,10.079,0,0,0-4.4-4.175c-1.426-.88-3.735-1.978-5.491-1.758a21.709,21.709,0,0,0-2.639.329c-.109,0-.219.11-.328.11h-.22a1.866,1.866,0,0,1-.55.219,6.233,6.233,0,0,0-3.516,2.748,5.58,5.58,0,0,0-.658,3.734A20.962,20.962,0,0,0,1844.071,371.125Z" fill="#fff"/>
    <path id="Pfad_2483" data-name="Pfad 2483" d="M1828.645,650.693c-.021-.06-.045-.117-.065-.177A1.623,1.623,0,0,0,1828.645,650.693Z" fill="#fff"/>
    <path id="Pfad_2484" data-name="Pfad 2484" d="M1832.645,648.648l-.22-.22a1.575,1.575,0,0,0-.659-.219,2.4,2.4,0,0,0-.549-.33,1.985,1.985,0,0,0-2.309.219,2.006,2.006,0,0,0-.329,2.417c.076.153.1.243.065.177a1.833,1.833,0,0,0,.373.7,2.163,2.163,0,0,0,.988.99,1.65,1.65,0,0,0,1.211.439,2.068,2.068,0,0,0,.878-.219,2.177,2.177,0,0,0,1.537-1.539A2.084,2.084,0,0,0,1832.645,648.648Z" fill="#fff"/>
    <path id="Pfad_2485" data-name="Pfad 2485" d="M1834.18,645.9c1.1.661,2.2,1.319,3.408,1.979,1.431.769,2.638,1.647,4.394,1.427a2.031,2.031,0,0,0,1.1-2.967c-.552-1.317-1.979-1.757-3.187-2.415a28.09,28.09,0,0,0-4.064-1.979C1833.521,640.957,1832.2,644.692,1834.18,645.9Z" fill="#fff"/>
    <path id="Pfad_2486" data-name="Pfad 2486" d="M1843.522,639.309c1.975,1.538,6.7,5.383,9.338,4.284a1.849,1.849,0,0,0,1.316-2.2c-.769-2.307-4.176-3.516-6.15-4.724a30.562,30.562,0,0,1-3.406-2.307,9.478,9.478,0,0,0-1.1-.77c-.334-.33-.44-.44-.554-.44-.768-1.426-3.183-1.646-3.622.329C1838.685,636.014,1841.761,637.989,1843.522,639.309Z" fill="#fff"/>
    <path id="Pfad_2487" data-name="Pfad 2487" d="M1848.794,624.807c-1.54.219-1.76,2.638-.438,3.3a33.463,33.463,0,0,1,4.505,2.087c1.645,1.1,3.076,2.417,4.723,3.405a1.986,1.986,0,0,0,2.31,0,2.141,2.141,0,0,0,1.1-1.318,2.5,2.5,0,0,0-.549-2.307C1857.583,627,1852.97,624.257,1848.794,624.807Z" fill="#fff"/>
    <path id="Pfad_2488" data-name="Pfad 2488" d="M1871.864,626.235a1.408,1.408,0,0,0,.552-1.868c-1.21-2.417-3.956-2.857-6.263-3.735-3.408-1.317-6.81-2.637-10.327-3.626-2.308-.659-3.846,2.857-1.649,3.846,3.078,1.429,6.374,2.748,9.557,3.956C1866.481,625.794,1869.119,627.444,1871.864,626.235Z" fill="#fff"/>
    <path id="Pfad_2489" data-name="Pfad 2489" d="M1867.692,611.185c4.065.878,7.358,2.636,11.095,4.5a2.415,2.415,0,0,0,2.417-4.175,27.524,27.524,0,0,0-12.963-4.614C1865.713,606.679,1865.273,610.633,1867.692,611.185Z" fill="#fff"/>
    <path id="Pfad_2490" data-name="Pfad 2490" d="M1870.657,598.659c3.405,1.1,6.7,2.2,9.889,3.515,2.635,1.1,6.042,3.626,8.68,1.758a1.116,1.116,0,0,0,.549-1.1c-.549-3.077-4.285-3.735-6.7-4.725a64.664,64.664,0,0,0-11.313-3.625A2.162,2.162,0,0,0,1870.657,598.659Z" fill="#fff"/>
    <path id="Pfad_2491" data-name="Pfad 2491" d="M1875.6,587.014c3.4,1.978,7.357,2.965,11.2,4.284,2.968.987,6.484,3.407,9.561,1.978a1.479,1.479,0,0,0,.658-1.539c-.771-3.3-4.942-4.065-7.69-4.943a125.6,125.6,0,0,0-11.977-3.846A2.243,2.243,0,0,0,1875.6,587.014Z" fill="#fff"/>
    <path id="Pfad_2492" data-name="Pfad 2492" d="M1879.664,574.27c3.078,1.207,6.155,2.2,9.232,3.4,2.854,1.1,6.7,4.065,9.776,3.077a1.756,1.756,0,0,0,1.207-2.088c-.878-3.076-4.614-3.845-7.358-4.944a90.1,90.1,0,0,0-11.646-3.844A2.28,2.28,0,0,0,1879.664,574.27Z" fill="#fff"/>
    <path id="Pfad_2493" data-name="Pfad 2493" d="M1898.124,561.084c-4.943-2.088-10-4.285-15.382-4.944a2.053,2.053,0,0,0-1.1,3.954c4.944,1.87,9.668,3.516,14.505,5.715,3.292,1.426,7.906,4.613,11.532,3.624a1.9,1.9,0,0,0,1.1-2.746C1906.8,563.391,1901.53,562.513,1898.124,561.084Z" fill="#fff"/>
    <path id="Pfad_2494" data-name="Pfad 2494" d="M1912.405,553.174c-1.757-2.417-4.505-3.734-7.029-5.163a113.927,113.927,0,0,0-10.988-5.495c-3.3-1.426-12.3-6.591-15.382-2.416-1.426,1.868,1.54,4.065,3.188,2.526-.879.768-.55.33.768.768a19.457,19.457,0,0,1,3.3,1.1c2.857,1.209,5.711,2.526,8.459,3.956,4.942,2.417,9.557,5.713,14.5,7.911C1911.087,557.239,1914.055,555.261,1912.405,553.174Z" fill="#fff"/>
    <path id="Pfad_2495" data-name="Pfad 2495" d="M1879.664,524.169c7.911,2.307,14.614,7.031,22.2,10.218,4.174,1.868,8.679,4.833,13.072,5.494,2.858.439,4.724-3.187,2.086-4.835-4.391-2.637-9.887-4.065-14.609-6.151-7.144-3.077-14.172-8.461-22.195-8.79C1877.8,519.994,1877.47,523.51,1879.664,524.169Z" fill="#fff"/>
    <path id="Pfad_2496" data-name="Pfad 2496" d="M1906.363,508.789c-4.613-2.638-9.67-5.384-15.162-5.275-2.743.111-2.634,3.956,0,4.285,5.166.551,10.109,4.065,14.4,6.7,2.415,1.429,4.833,3.078,7.357,4.5,2.2,1.319,4.618,3.078,7.253,2.968a2.35,2.35,0,0,0,1.649-3.956c-1.759-1.977-4.837-2.965-7.032-4.284C1911.966,512.194,1909.222,510.436,1906.363,508.789Z" fill="#fff"/>
    <path id="Pfad_2497" data-name="Pfad 2497" d="M1890.1,488.244a46.069,46.069,0,0,1,14.062,6.151,65.453,65.453,0,0,1,7.143,5.165c1.539,1.209,2.856,2.2,4.833,1.648a1.652,1.652,0,0,0,1.1-1.539c.334-4.065-7.467-7.911-10.434-9.778-4.834-2.965-10.33-5.6-16.041-5.931C1888.237,483.85,1887.8,487.7,1890.1,488.244Z" fill="#fff"/>
    <path id="Pfad_2498" data-name="Pfad 2498" d="M1892.189,470.336c-1.977,1.209-.658,4.833,1.54,3.845,2.524-.99,5.711,1.868,7.581,3.185,2.854,2.087,5.272,5.055,8.35,6.813a2.276,2.276,0,0,0,3.073-3.076c-2.305-3.736-6.7-6.7-10.434-8.9C1899.44,470.336,1895.376,468.468,1892.189,470.336Z" fill="#fff"/>
    <path id="Pfad_2499" data-name="Pfad 2499" d="M1892.189,460.447a27.33,27.33,0,0,1,5.167,1.319c1.646.549,2.742,1.978,4.394,2.746a2.115,2.115,0,0,0,2.854-2.857c-1.867-3.734-8.131-5.272-11.863-4.833C1890.872,457.15,1889.993,460.118,1892.189,460.447Z" fill="#fff"/>
    <path id="Pfad_2500" data-name="Pfad 2500" d="M1895.266,449.13a1.105,1.105,0,0,1,.329.109c.11.11.221.11.221.222.11,0,.22.109.333.109a2.081,2.081,0,0,0,1.646.878,1.911,1.911,0,0,0,1.865-1.319c.329-1.427-.658-2.3-1.646-3.076a4.113,4.113,0,0,0-2.749-.658,1.786,1.786,0,0,0-1.865,1.868c0,1.1.769,1.646,1.865,1.756C1894.937,449.021,1895.156,449.13,1895.266,449.13Z" fill="#fff"/>
    <path id="Pfad_2501" data-name="Pfad 2501" d="M1891.312,435.618h-.11a1.645,1.645,0,0,0-2.085,1.648,1.628,1.628,0,0,0,2.085,1.539h.11A1.645,1.645,0,0,0,1891.312,435.618Z" fill="#fff"/>
    <path id="Pfad_2502" data-name="Pfad 2502" d="M1776.94,714.458c3.735,2.2,7.91,3.626,11.646,5.823,2.089,1.208,4.065,2.526,5.936,3.843,1.755,1.209,3.187,2.968,5.162,3.846a2.3,2.3,0,0,0,3.077-3.185c-1.98-4.065-7.8-6.7-11.647-8.789-3.955-2.087-8.788-4.506-13.293-4.726A1.719,1.719,0,0,0,1776.94,714.458Z" fill="#fff"/>
    <path id="Pfad_2503" data-name="Pfad 2503" d="M1774.307,701.274c3.954,2.746,8.567,4.5,13.072,6.15,2.419.99,4.942,1.978,7.362,3.187,2.195,1.208,3.405,2.526,6.04,1.978.992-.11,1.318-1.209,1.212-2.088-.662-3.955-6.594-5.384-9.781-6.592-5.382-2.087-10.764-3.516-15.821-6.152A2.045,2.045,0,0,0,1774.307,701.274Z" fill="#fff"/>
    <path id="Pfad_2504" data-name="Pfad 2504" d="M1784.851,695.89a11.13,11.13,0,0,1,5.6,1.1c2.086.769,3.736,2.2,5.711,3.075s4.725-.99,3.188-3.187c-2.639-4.175-10.438-6.372-15.052-4.724C1782.436,692.925,1782.546,696.11,1784.851,695.89Z" fill="#fff"/>
    <path id="Pfad_2505" data-name="Pfad 2505" d="M1800.343,688.86a4.465,4.465,0,0,0-4.065.988,1.929,1.929,0,0,0-.658,2.636,2.072,2.072,0,0,0,2.638.771l.11-.11c.109.11.438.11.438.22h.109a2.42,2.42,0,0,0,.55.439,1.951,1.951,0,0,0,1.1.439,2.112,2.112,0,0,0,2.638-1.978C1803.421,690.506,1801.773,689.408,1800.343,688.86Z" fill="#fff"/>
    <path id="Pfad_2506" data-name="Pfad 2506" d="M1568.194,718.083c-.768-.441-2.305-1.319-2.414-1.429v.11a1.759,1.759,0,0,0-2.858.219v.11a1.888,1.888,0,0,0,0,1.868c1.541,2.2,3.956,3.735,6.154,5.384,3.3,2.527,6.7,5.6,10.437,7.36,2.2,1.1,4.942-1.758,2.747-3.625-2.747-2.417-6.042-4.285-9.118-6.482C1571.491,720.5,1569.845,719.291,1568.194,718.083Z" fill="#fff"/>
    <path id="Pfad_2507" data-name="Pfad 2507" d="M1590.06,719.51c4.285-4.175-16.918-14.722-19.556-17.028-2.091-1.648-4.833.988-2.968,2.967,3.3,3.405,7.582,5.711,11.536,8.24a63.593,63.593,0,0,1,6.924,5.273C1587.094,719.84,1588.853,720.83,1590.06,719.51Z" fill="#fff"/>
    <path id="Pfad_2508" data-name="Pfad 2508" d="M1595.882,703.91c-1.428-3.516-7.029-5.384-10.217-7.251-3.515-2.087-7.69-3.846-10.767-6.591-1.866-1.649-4.614.988-2.745,2.857a47.929,47.929,0,0,0,9.339,6.7c2.084,1.319,4.284,2.638,6.479,3.846,1.87,1.209,3.736,3.078,6.045,2.967A2.051,2.051,0,0,0,1595.882,703.91Z" fill="#fff"/>
    <path id="Pfad_2509" data-name="Pfad 2509" d="M1589.4,686.551a2.076,2.076,0,0,0-1.431,2.528,7.513,7.513,0,0,0,1.979,2.855,8.4,8.4,0,0,0,1.537,1.209,2.844,2.844,0,0,0,2.309.549,1.873,1.873,0,0,0,1.316-2.309,2.434,2.434,0,0,0-.877-1.427,3.934,3.934,0,0,0-.878-.549c.109,0-.22-.219-.333-.329a4.824,4.824,0,0,0-.769-.661v-.11c-.109,0-.109,0-.109-.109,0,0-.33-.658-.221-.22A1.984,1.984,0,0,0,1589.4,686.551Z" fill="#fff"/>
    <path id="Pfad_2510" data-name="Pfad 2510" d="M1418.669,569.324c-1.976-.549-2.857,1.758-1.757,3.076,1.428,1.87,3.518,3.406,5.162,5.165,1.757,1.977,3.3,4.284,5.384,5.933,1.979,1.539,4.175-1.317,3.187-3.187-1.207-2.2-3.406-4.175-5.162-6.041C1423.5,572.4,1421.307,570.2,1418.669,569.324Z" fill="#fff"/>
    <path id="Pfad_2511" data-name="Pfad 2511" d="M1436.47,580.42c.545-.11,1.316-.439,1.426-1.1a3.482,3.482,0,0,0-.658-2.748l-1.32-1.646c-.659-.878-1.427-1.867-2.085-2.857-1.321-2.2-4.4-.22-3.407,1.979a12.834,12.834,0,0,0,1.866,3.075C1433.282,578.554,1434.381,580.529,1436.47,580.42Z" fill="#fff"/>
    <path id="Pfad_2512" data-name="Pfad 2512" d="M1444.156,571.083a.385.385,0,0,1-.109-.219.381.381,0,0,0-.109-.22,1.761,1.761,0,0,0-1.757-1.429,2.027,2.027,0,0,0-1.979,1.868c-.11,2.307,1.869,5.053,4.284,5.163a1.85,1.85,0,0,0,1.76-2.306,8.585,8.585,0,0,0-1.76-2.2v-.219A1.543,1.543,0,0,1,1444.156,571.083Z" fill="#fff"/>
    <path id="Pfad_2513" data-name="Pfad 2513" d="M1452.068,569.324a1.79,1.79,0,0,0-1.647,1.758,4.414,4.414,0,0,0,.329,2.087,2.366,2.366,0,0,0,1.318.99,1.62,1.62,0,0,0,.768.11.823.823,0,0,0,.439-.11,1.327,1.327,0,0,0,.882-1.21.405.405,0,0,0-.109-.329,1.322,1.322,0,0,0-.22-.88.107.107,0,0,0,.109.11.385.385,0,0,1-.109-.22v-.548A1.811,1.811,0,0,0,1452.068,569.324Z" fill="#fff"/>
    <path id="Pfad_2514" data-name="Pfad 2514" d="M1453.938,571.851c0,.109.11.219,0,0Z" fill="#fff"/>
    <path id="Pfad_2515" data-name="Pfad 2515" d="M1597.532,402.658c.658-2.858-2.858-5.163-4.834-6.7-3.077-2.524-6.153-4.724-9.122-7.25-1.207-1.1-3.516.329-2.415,1.868a49.6,49.6,0,0,0,7.139,7.252c1.321,1.1,2.64,2.307,3.847,3.514,1.32,1.21,1.979,2.526,3.846,2.526A1.763,1.763,0,0,0,1597.532,402.658Z" fill="#fff"/>
    <path id="Pfad_2516" data-name="Pfad 2516" d="M1605,398.374a1.617,1.617,0,0,0,1.54-2.088c-1.1-2.965-4.613-4.065-7.252-5.713a32.751,32.751,0,0,1-10.549-8.789c-1.536-1.978-4.943-.109-3.513,1.978a42.653,42.653,0,0,0,8.9,8.9C1596.765,394.638,1601.487,398.813,1605,398.374Z" fill="#fff"/>
    <path id="Pfad_2517" data-name="Pfad 2517" d="M1611.483,389.256c-1.208-3.517-5.931-5.384-8.789-7.252-3.3-2.2-6.7-5.274-10.329-6.813a1.821,1.821,0,0,0-2.415,2.528c1.537,3.186,5.493,5.383,8.24,7.472,1.757,1.317,3.736,2.636,5.6,3.843,1.87,1.32,3.406,2.856,5.716,2.856A2.1,2.1,0,0,0,1611.483,389.256Z" fill="#fff"/>
    <path id="Pfad_2518" data-name="Pfad 2518" d="M1611.593,376.181a16.1,16.1,0,0,0-4.942-4.065c-2.2-1.319-4.505-2.636-6.7-4.065-1.976-1.21-3.846,1.539-2.306,3.075a28.623,28.623,0,0,0,5.383,4.285c1.869,1.209,3.626,2.638,5.381,3.956a2.451,2.451,0,0,0,2.311,0,1.968,1.968,0,0,0,.549-.439A2.334,2.334,0,0,0,1611.593,376.181Z" fill="#fff"/>
    <path id="Pfad_2519" data-name="Pfad 2519" d="M1612.032,364.755a1.476,1.476,0,0,0-.549-1.319,2.544,2.544,0,0,0-.768-.771,3.458,3.458,0,0,0-1.757-.659,1.736,1.736,0,0,0-1.761,1.758,1.714,1.714,0,0,0,1.647,1.758,3.3,3.3,0,0,0,1.1.439h.11a1.2,1.2,0,0,0,.878,0C1611.593,365.744,1612.142,365.414,1612.032,364.755Z" fill="#fff"/>
    <path id="Pfad_2520" data-name="Pfad 2520" d="M1736.4,338.495a1.244,1.244,0,0,0,.22-2.3c-.77-.441-1.537-.55-2.415-.99a7.232,7.232,0,0,1-2.195-1.538c-1.54-1.317-3.74.879-2.2,2.309C1731.346,337.507,1734.095,339.375,1736.4,338.495Z" fill="#fff"/>
    <path id="Pfad_2521" data-name="Pfad 2521" d="M1734.863,325.532a54.191,54.191,0,0,0,7.142,3.626c1.976.878,5.053,2.968,7.142,1.538a1.7,1.7,0,0,0,.769-1.757c-.549-2.307-3.516-2.749-5.492-3.516-2.527-.988-5.166-2.088-7.58-3.3A1.974,1.974,0,0,0,1734.863,325.532Z" fill="#fff"/>
    <path id="Pfad_2522" data-name="Pfad 2522" d="M1746.838,318.062c3.3,1.429,7.032,4.063,10.549,4.5,1.647.109,2.634-1.978,1.866-3.407-1.537-2.636-5.383-3.624-8.24-4.724-3.516-1.429-7.251-2.417-10.654-4.285-1.871-1.1-4.178,1.538-2.419,3.075A31.839,31.839,0,0,0,1746.838,318.062Z" fill="#fff"/>
    <path id="Pfad_2523" data-name="Pfad 2523" d="M1760.241,306.2a63.18,63.18,0,0,0-7.14-3.736c-1.321-.658-2.747-1.209-4.174-1.757l-1.979-.659a.4.4,0,0,1-.33-.11,2.709,2.709,0,0,0-2.195.439,1.985,1.985,0,0,0-.223,2.307c.992,1.648,3.735,2.966,5.936,3.956a71.15,71.15,0,0,1,6.369,3.406c2.419,1.539,4.837,3.844,7.8,3.625,1.1-.11,2.31-1.1,1.761-2.306C1764.968,308.613,1762.659,307.625,1760.241,306.2Z" fill="#fff"/>
    <path id="Pfad_2524" data-name="Pfad 2524" d="M1766.4,294.22c-5.6-4.065-13.072-6.262-19.557-8.789-2.195-.99-3.3,2.526-1.536,3.734,5.82,3.846,12.634,5.715,18.565,9.34C1766.725,300.263,1769.033,295.979,1766.4,294.22Z" fill="#fff"/>
    <path id="Pfad_2525" data-name="Pfad 2525" d="M1746.838,274.995a1.845,1.845,0,0,0-.438,3.626,59.3,59.3,0,0,1,9.557,3.734c2.968,1.319,6.045,3.625,9.338,4.175,1.869.331,3.959-2.2,2.089-3.734-2.747-2.309-6.7-3.516-10.1-4.945C1753.981,276.421,1750.464,275.1,1746.838,274.995Z" fill="#fff"/>
    <path id="Pfad_2526" data-name="Pfad 2526" d="M1746.509,264.227c2.747,2.418,6.151,3.735,9.447,5.274,2.2.88,7.582,4.945,9.78,2.746,2.635-2.636-4.174-5.273-5.6-5.931-3.735-1.65-7.91-2.638-11.316-5.055C1747.058,260.051,1744.862,262.8,1746.509,264.227Z" fill="#fff"/>
    <path id="Pfad_2527" data-name="Pfad 2527" d="M1748.375,249.065c-1.976-.11-2.415,3.076-.658,3.517a16.231,16.231,0,0,0,3.077,1.539c1.646.659,3.406,1.976,5.271,2.2,1.87.44,3.846-1.976,2.089-3.515-1.316-1.209-3.076-1.648-4.613-2.307a18.518,18.518,0,0,0-4.175-1.319A3.039,3.039,0,0,0,1748.375,249.065Z" fill="#fff"/>
    <path id="Pfad_2528" data-name="Pfad 2528" d="M1746.838,242.694a11.147,11.147,0,0,1,2.2.438c.988.439,1.537.988,2.634.988a1.336,1.336,0,0,0,1.431-.988c.659-3.516-3.735-4.4-6.264-3.955C1745.083,239.4,1745.083,242.365,1746.838,242.694Z" fill="#fff"/>
    <path id="Pfad_2529" data-name="Pfad 2529" d="M1745.3,232.257a1.808,1.808,0,0,0,1.316-.551,1.756,1.756,0,0,0,.549-1.756c0-.219-.109-.329-.109-.439a1.779,1.779,0,0,0-1.756-1.319,1.752,1.752,0,0,0-1.65,1.319c0,.11-.11.22-.11.439a1.732,1.732,0,0,0,.221,1.427A1.752,1.752,0,0,0,1745.3,232.257Z" fill="#fff"/>
  </g>
</svg>
